<?xml version="1.0" encoding="utf-8"?>
<!-- Generator: Adobe Illustrator 17.1.0, SVG Export Plug-In . SVG Version: 6.00 Build 0)  -->
<!DOCTYPE svg PUBLIC "-//W3C//DTD SVG 1.1//EN" "http://www.w3.org/Graphics/SVG/1.1/DTD/svg11.dtd">
<svg version="1.1" id="Layer_1" xmlns="http://www.w3.org/2000/svg" xmlns:xlink="http://www.w3.org/1999/xlink" x="0px" y="0px"
	 width="45px" height="68.7px" viewBox="0 0 45 68.7" enable-background="new 0 0 45 68.7" xml:space="preserve">
<path fill="#63D2C1" d="M0,63.6l13.3,0V5H0V63.6z M0,63.6"/>
<path fill="#63D2C1" d="M15.9,0v68.7L45,63.5l0-58.2L15.9,0z M41.8,60.8l-22.7,4.1v-61l22.7,4.1L41.8,60.8z M41.8,60.8"/>
<path fill="#63D2C1" d="M24.3,34.3c0,1.3-0.8,2.3-1.8,2.3c-1,0-1.8-1-1.8-2.3c0-1.3,0.8-2.3,1.8-2.3C23.5,32,24.3,33.1,24.3,34.3
	L24.3,34.3z M24.3,34.3"/>
</svg>
