<?xml version="1.0" encoding="utf-8"?>
<!-- Generator: Adobe Illustrator 17.1.0, SVG Export Plug-In . SVG Version: 6.00 Build 0)  -->
<!DOCTYPE svg PUBLIC "-//W3C//DTD SVG 1.1//EN" "http://www.w3.org/Graphics/SVG/1.1/DTD/svg11.dtd">
<svg version="1.1" id="Layer_1" xmlns="http://www.w3.org/2000/svg" xmlns:xlink="http://www.w3.org/1999/xlink" x="0px" y="0px"
	 width="30.7px" height="20.4px" viewBox="0 0 30.7 20.4" enable-background="new 0 0 30.7 20.4" xml:space="preserve">
<path fill-rule="evenodd" clip-rule="evenodd" fill="#F9572E" stroke="#F9572E" stroke-width="0.7" stroke-miterlimit="10" d="
	M30.4,2.8c0-0.6-0.3-1.2-0.7-1.7c0,0,0,0,0,0c0,0,0,0,0,0c-0.5-0.5-1.1-0.8-1.8-0.8h-25C2.2,0.3,1.5,0.7,1,1.1c0,0,0,0,0,0
	c0,0,0,0,0,0c-0.4,0.4-0.7,1-0.7,1.7v14.7c0,0.7,0.3,1.2,0.7,1.7c0,0,0,0,0,0c0,0,0,0,0,0C1.5,19.7,2.2,20,2.9,20h25
	c0.7,0,1.3-0.3,1.8-0.8c0,0,0,0,0,0c0,0,0,0,0,0c0.4-0.4,0.7-1,0.7-1.7V2.8z M20.5,9.4l8.6-7.2c0.1,0.2,0.1,0.4,0.1,0.6v14.7
	c0,0.2,0,0.4-0.1,0.6L20.5,9.4z M27.8,1.4c0.2,0,0.4,0,0.6,0.1L15.3,12.4L2.3,1.5c0.2-0.1,0.4-0.1,0.6-0.1H27.8z M1.5,18.1
	c-0.1-0.2-0.1-0.4-0.1-0.6V2.8c0-0.2,0.1-0.4,0.1-0.6l8.6,7.2L1.5,18.1z M2.9,19c-0.2,0-0.5-0.1-0.7-0.2l8.8-8.8l4,3.4
	c0.1,0.1,0.2,0.1,0.3,0.1c0.1,0,0.2,0,0.3-0.1l4-3.4l8.8,8.8c-0.2,0.1-0.4,0.2-0.7,0.2H2.9z M2.9,19"/>
</svg>
