<?xml version="1.0" encoding="utf-8"?>
<!-- Generator: Adobe Illustrator 17.1.0, SVG Export Plug-In . SVG Version: 6.00 Build 0)  -->
<!DOCTYPE svg PUBLIC "-//W3C//DTD SVG 1.1//EN" "http://www.w3.org/Graphics/SVG/1.1/DTD/svg11.dtd">
<svg version="1.1" id="Layer_1" xmlns="http://www.w3.org/2000/svg" xmlns:xlink="http://www.w3.org/1999/xlink" x="0px" y="0px"
	 width="22.5px" height="22.5px" viewBox="0 0 22.5 22.5" enable-background="new 0 0 22.5 22.5" xml:space="preserve">
<path fill="#FFFFFF" d="M2.9,0h16.7c1.6,0,2.9,1.2,2.9,2.9v16.7c0,1.7-1.3,2.9-2.9,2.9H2.9c-1.6,0-2.9-1.2-2.9-2.9V2.9
	C0,1.2,1.3,0,2.9,0L2.9,0z M16.4,2.5c-0.6,0-1,0.5-1,1v2.4c0,0.6,0.5,1,1,1h2.5c0.6,0,1-0.5,1-1V3.5c0-0.6-0.5-1-1-1L16.4,2.5
	L16.4,2.5z M20,9.5h-2c0.2,0.6,0.3,1.3,0.3,1.9c0,3.7-3.1,6.8-7,6.8s-7-3-7-6.8c0-0.7,0.1-1.3,0.3-1.9H2.5V19c0,0.5,0.4,0.9,0.9,0.9
	h15.7c0.5,0,0.9-0.4,0.9-0.9V9.5z M11.3,6.8c-2.5,0-4.5,2-4.5,4.4s2,4.4,4.5,4.4s4.5-2,4.5-4.4S13.8,6.8,11.3,6.8L11.3,6.8z"/>
</svg>
