<?xml version="1.0" encoding="utf-8"?>
<!-- Generator: Adobe Illustrator 17.1.0, SVG Export Plug-In . SVG Version: 6.00 Build 0)  -->
<!DOCTYPE svg PUBLIC "-//W3C//DTD SVG 1.1//EN" "http://www.w3.org/Graphics/SVG/1.1/DTD/svg11.dtd">
<svg version="1.1" id="Layer_1" xmlns="http://www.w3.org/2000/svg" xmlns:xlink="http://www.w3.org/1999/xlink" x="0px" y="0px"
	 width="28.6px" height="16.3px" viewBox="0 0 28.6 16.3" enable-background="new 0 0 28.6 16.3" xml:space="preserve">
<path fill="#FFFFFF" d="M28.3,14.8c0-0.1-0.1-0.1-0.1-0.2c-0.5-0.9-1.4-2-2.8-3.3l0,0l0,0l0,0l0,0c-0.6-0.6-1-1-1.2-1.2
	c-0.3-0.4-0.4-0.8-0.2-1.2c0.1-0.3,0.6-1,1.3-1.9c0.4-0.5,0.7-0.9,1-1.3C28,3.4,28.8,2,28.5,1.3l-0.1-0.2c-0.1-0.1-0.2-0.2-0.5-0.2
	c-0.2-0.1-0.6-0.1-0.9,0h-4.3c-0.1,0-0.2,0-0.3,0s-0.2,0-0.2,0h-0.1H22c0,0-0.1,0.1-0.2,0.2c-0.1,0.1-0.1,0.2-0.1,0.3
	c-0.5,1.2-1,2.3-1.6,3.3c-0.4,0.6-0.7,1.1-1,1.6c-0.3,0.4-0.6,0.8-0.8,1s-0.4,0.4-0.6,0.5C17.5,7.9,17.4,8,17.3,8
	c-0.1,0-0.2,0-0.3-0.1c-0.1-0.1-0.2-0.2-0.3-0.4c-0.1-0.2-0.1-0.3-0.2-0.6c0-0.2,0-0.4-0.1-0.6c0-0.2,0-0.4,0-0.7c0-0.3,0-0.5,0-0.6
	c0-0.4,0-0.8,0-1.2s0-0.8,0-1c0-0.3,0-0.5,0-0.8s0-0.5-0.1-0.7c0-0.2-0.1-0.3-0.2-0.5c-0.1-0.2-0.2-0.3-0.3-0.4s-0.3-0.2-0.5-0.2
	c-0.5-0.1-1.2-0.2-2-0.2c-1.8,0-3,0.1-3.5,0.4c0.1,0.2,0,0.3-0.2,0.5S9.4,1.2,9.5,1.3c0.6,0.1,1,0.3,1.3,0.6l0.1,0.2
	C11,2.2,11,2.5,11.1,2.8c0.1,0.3,0.1,0.7,0.1,1.1c0,0.7,0,1.3,0,1.9c0,0.5-0.1,0.9-0.1,1.2S11,7.5,10.9,7.7C10.8,7.9,10.8,8,10.7,8
	l-0.1,0.1c-0.1,0-0.3,0.1-0.4,0.1c-0.1,0-0.3-0.1-0.5-0.2C9.5,7.7,9.3,7.5,9.1,7.3c-0.2-0.2-0.5-0.6-0.7-1c-0.3-0.5-0.6-1-0.9-1.6
	L7.3,4.3C7.2,4,7,3.6,6.7,3.1C6.4,2.6,6.2,2.1,6,1.6C5.9,1.3,5.8,1.2,5.7,1.1H5.6c0,0-0.1-0.1-0.2-0.1C5.2,0.9,5.1,0.8,5,0.8H0.9
	c-0.4,0-0.6,0.1-0.8,0.3L0,1.2c0,0,0,0.1,0,0.2s0,0.2,0.1,0.4c0.6,1.4,1.2,2.7,1.9,4s1.3,2.3,1.8,3.1c0.5,0.8,1,1.5,1.6,2.2
	c0.5,0.7,0.9,1.2,1.1,1.4c0.2,0.2,0.3,0.3,0.4,0.4l0.4,0.4c0.2,0.2,0.6,0.5,1,0.9c0.5,0.3,1,0.7,1.5,1c0.6,0.3,1.2,0.6,2,0.8
	c0.7,0.2,1.5,0.3,2.2,0.2h1.7c0.3,0,0.6-0.1,0.8-0.3l0.1-0.1c0-0.1,0.1-0.2,0.1-0.3c0-0.1,0.1-0.3,0.1-0.4c0-0.4,0-0.8,0.1-1.1
	c0.1-0.3,0.2-0.6,0.3-0.8c0.1-0.2,0.2-0.3,0.3-0.4c0.1-0.1,0.2-0.2,0.3-0.2c0,0,0.1,0,0.1-0.1c0.2-0.1,0.5,0,0.8,0.2
	c0.3,0.2,0.6,0.5,0.9,0.9c0.3,0.3,0.6,0.7,1,1.1s0.7,0.7,1,0.9l0.3,0.2c0.2,0.1,0.5,0.2,0.8,0.3c0.3,0.1,0.6,0.1,0.8,0.1l3.8-0.1
	c0.4,0,0.7-0.1,0.9-0.2c0.2-0.1,0.3-0.3,0.4-0.4c0-0.1,0-0.3,0-0.5C28.4,15,28.4,14.8,28.3,14.8L28.3,14.8z"/>
</svg>
