<?xml version="1.0" encoding="utf-8"?>
<!-- Generator: Adobe Illustrator 17.1.0, SVG Export Plug-In . SVG Version: 6.00 Build 0)  -->
<!DOCTYPE svg PUBLIC "-//W3C//DTD SVG 1.1//EN" "http://www.w3.org/Graphics/SVG/1.1/DTD/svg11.dtd">
<svg version="1.1" id="Layer_1" xmlns="http://www.w3.org/2000/svg" xmlns:xlink="http://www.w3.org/1999/xlink" x="0px" y="0px"
	 width="24.5px" height="24.4px" viewBox="-0.3 -0.3 24.5 24.4" enable-background="new -0.3 -0.3 24.5 24.4" xml:space="preserve">
<path fill="#F9572E" stroke="#F9572E" stroke-width="0.5" stroke-miterlimit="10" d="M17.7,23.8c-0.6,0-1.8-0.1-3.3-0.6
	c-2.8-0.9-5.7-2.7-8.4-5.4c-4.2-4.2-6-7.5-6.1-10.8c0-0.4,0.3-0.7,0.7-0.7l0,0c0.4,0,0.7,0.3,0.7,0.7c0,3,1.7,6,5.7,9.9
	c6,6,10.8,5.6,11.1,5.6c0.4-0.1,0.8-0.2,1.2-0.3c0.4-0.2,0.9-0.4,1.2-0.7c0,0,0.1,0,0.1-0.1l0.8-0.8c0.4-0.4,0.4-1.1,0-1.5L18,15.7
	c-0.4-0.4-1.1-0.4-1.5,0l-1.7,1.7c-0.2,0.2-0.5,0.3-0.8,0.1c-0.1-0.1-0.2-0.1-0.3-0.2c-1.1-0.6-2.6-1.4-4.2-3.1
	c-1.6-1.6-2.5-3.1-3.1-4.2V10C6.4,9.9,6.4,9.8,6.4,9.7C6.2,9.6,6.3,9.3,6.5,9.1l1.7-1.7c0.4-0.4,0.5-1.1,0-1.5L4.8,2.5
	C4.6,2.3,4.4,2.2,4.1,2.2c-0.3,0-0.6,0.1-0.8,0.3l-0.9,1C2.3,3.7,2.1,3.9,2,4.2C1.8,4.5,1.4,4.6,1.1,4.4C0.8,4.3,0.6,3.9,0.8,3.5
	C1,3.2,1.2,2.9,1.4,2.6l0,0l0.9-1l0,0c0.5-0.5,1.1-0.7,1.8-0.8c0.7,0,1.3,0.2,1.7,0.7l3.4,3.4c0.9,0.9,0.9,2.5,0,3.4L7.8,9.7
	c0.6,1,1.4,2.4,2.8,3.8s2.8,2.2,3.8,2.8l1.3-1.3c1-1,2.5-1,3.4,0l3.4,3.4c0.9,0.9,0.9,2.5,0,3.4l0,0l-1,0.9
	c-0.1,0.1-0.1,0.1-0.2,0.1c-0.4,0.3-0.9,0.6-1.4,0.8c-0.5,0.2-1,0.3-1.6,0.4l0,0C18.1,23.8,18,23.8,17.7,23.8z M24,12.3
	C24,5.5,18.4,0,11.7,0C11.3,0,11,0.3,11,0.7s0.3,0.7,0.7,0.7c6.1,0,11.1,5,11.1,11.1c0,0.4,0.3,0.7,0.7,0.7C23.6,13,24,12.7,24,12.3
	z M19.6,11.9c0-4.2-3.4-7.6-7.6-7.6c-0.4,0-0.7,0.3-0.7,0.7s0.4,0.7,0.7,0.7c3.4,0,6.2,2.8,6.2,6.2c0,0.4,0.3,0.7,0.7,0.7
	S19.6,12.1,19.6,11.9z"/>
</svg>
