<?xml version="1.0" encoding="utf-8"?>
<!-- Generator: Adobe Illustrator 17.1.0, SVG Export Plug-In . SVG Version: 6.00 Build 0)  -->
<!DOCTYPE svg PUBLIC "-//W3C//DTD SVG 1.1//EN" "http://www.w3.org/Graphics/SVG/1.1/DTD/svg11.dtd">
<svg version="1.1" id="Layer_1" xmlns="http://www.w3.org/2000/svg" xmlns:xlink="http://www.w3.org/1999/xlink" x="0px" y="0px"
	 width="41.4px" height="31.2px" viewBox="0 0 41.4 31.2" enable-background="new 0 0 41.4 31.2" xml:space="preserve">
<path fill="#F9572E" d="M20.7,31.2c-1,0-1.9-0.4-2.7-1.1l-18-18l1.4-1.4l18,18c0.7,0.7,1.8,0.7,2.5,0l18-18l1.4,1.4l-18,18
	C22.7,30.8,21.7,31.2,20.7,31.2z"/>
<path fill="#F9572E" d="M20.7,11.1c-0.6,0-1.2-0.2-1.7-0.7l-9-9L11.4,0l9,9c0.2,0.2,0.4,0.2,0.6,0l9-9l1.4,1.4l-9,9
	C21.9,10.9,21.3,11.1,20.7,11.1z"/>
</svg>
