<?xml version="1.0" encoding="utf-8"?>
<!-- Generator: Adobe Illustrator 17.1.0, SVG Export Plug-In . SVG Version: 6.00 Build 0)  -->
<!DOCTYPE svg PUBLIC "-//W3C//DTD SVG 1.1//EN" "http://www.w3.org/Graphics/SVG/1.1/DTD/svg11.dtd">
<svg version="1.1" id="Layer_1" xmlns="http://www.w3.org/2000/svg" xmlns:xlink="http://www.w3.org/1999/xlink" x="0px" y="0px"
	 width="33.7px" height="31.1px" viewBox="0 0 33.7 31.1" enable-background="new 0 0 33.7 31.1" xml:space="preserve">
<path fill="#F9572E" d="M16.8,31.1c-1,0-1.9-0.4-2.7-1.1L14,29.9l-14-18l1.6-1.2l14,18c0.7,0.6,1.8,0.6,2.5,0l14-18l1.6,1.2L19.6,30
	C18.7,30.7,17.8,31.1,16.8,31.1z"/>
<path fill="#F9572E" d="M16.8,11c-0.6,0-1.2-0.2-1.7-0.7L15,10.1l-6-9L10.7,0l5.9,8.9c0.2,0.1,0.3,0.1,0.5,0L23,0l1.7,1.1l-6.1,9.2
	C18,10.7,17.4,11,16.8,11z"/>
</svg>
