<svg xmlns="http://www.w3.org/2000/svg" xmlns:xlink="http://www.w3.org/1999/xlink" width="354" height="2279" viewBox="0 0 354 2279"><svg width="122.8" height="145" viewBox="-50 -50 122.8 145" id="arrow" y="0"><path fill="#F9572E" d="M20.6 45L1.3 25.7c-.8-.8-1.3-2-1.3-3.2s.5-2.3 1.3-3.2L20.6 0l2.1 2.1L3.4 21.5c-.2.2-.4.6-.4 1s.2.8.4 1.1l19.3 19.3-2.1 2.1z"></path></svg><svg width="122.6" height="135.3" viewBox="-50 -50 122.6 135.3" id="arrow-hover" y="145"><path fill="#F9572E" d="M1.5 21l-.2-.1C.5 20 0 18.9 0 17.7c0-1.2.4-2.3 1.3-3.2L20.8 0l1.8 2.4L3.4 16.6c-.3.3-.4.6-.4 1s.2.7.4 1l19.2 14.3-1.8 2.4L1.5 21z"></path></svg><svg width="145" height="168.7" viewBox="-50 -50 145 168.7" id="door" y="281"><path fill="#63D2C1" d="M0 63.6h13.3V5H0v58.6zM15.9 0v68.7L45 63.5V5.3L15.9 0zm25.9 60.8l-22.7 4.1v-61L41.8 8v52.8zm0 0"></path><path fill="#63D2C1" d="M24.3 34.3c0 1.3-.8 2.3-1.8 2.3s-1.8-1-1.8-2.3c0-1.3.8-2.3 1.8-2.3s1.8 1.1 1.8 2.3zm0 0"></path></svg><svg width="130.7" height="120.4" viewBox="-50 -50 130.7 120.4" id="email" y="450"><path fill-rule="evenodd" clip-rule="evenodd" fill="#F9572E" stroke="#F9572E" stroke-width=".7" stroke-miterlimit="10" d="M30.4 2.8c0-.6-.3-1.2-.7-1.7-.5-.5-1.1-.8-1.8-.8h-25c-.7 0-1.4.4-1.9.8-.4.4-.7 1-.7 1.7v14.7c0 .7.3 1.2.7 1.7.5.5 1.2.8 1.9.8h25c.7 0 1.3-.3 1.8-.8.4-.4.7-1 .7-1.7V2.8zm-9.9 6.6l8.6-7.2c.1.2.1.4.1.6v14.7c0 .2 0 .4-.1.6l-8.6-8.7zm7.3-8c.2 0 .4 0 .6.1L15.3 12.4 2.3 1.5c.2-.1.4-.1.6-.1h24.9zM1.5 18.1c-.1-.2-.1-.4-.1-.6V2.8c0-.2.1-.4.1-.6l8.6 7.2-8.6 8.7zm1.4.9c-.2 0-.5-.1-.7-.2L11 10l4 3.4c.1.1.2.1.3.1.1 0 .2 0 .3-.1l4-3.4 8.8 8.8c-.2.1-.4.2-.7.2H2.9zm0 0"></path></svg><svg width="111.5" height="122.5" viewBox="-50 -50 111.5 122.5" id="social-fb" y="571"><path fill="#FFF" d="M11.5 8H7.3V6s-.2-1.9 1.1-1.9h2.7V0H6.5S2.6 0 2.6 3.9v4.2H0v3.3h2.6v11.1h4.7V11.4h3.1L11.5 8z"></path></svg><svg width="122.5" height="122.5" viewBox="-50 -50 122.5 122.5" id="social-insta" y="694"><path fill="#FFF" d="M2.9 0h16.7c1.6 0 2.9 1.2 2.9 2.9v16.7c0 1.7-1.3 2.9-2.9 2.9H2.9c-1.6 0-2.9-1.2-2.9-2.9V2.9C0 1.2 1.3 0 2.9 0zm13.5 2.5c-.6 0-1 .5-1 1v2.4c0 .6.5 1 1 1h2.5c.6 0 1-.5 1-1V3.5c0-.6-.5-1-1-1h-2.5zm3.6 7h-2c.2.6.3 1.3.3 1.9 0 3.7-3.1 6.8-7 6.8s-7-3-7-6.8c0-.7.1-1.3.3-1.9H2.5V19c0 .5.4.9.9.9h15.7c.5 0 .9-.4.9-.9V9.5zm-8.7-2.7c-2.5 0-4.5 2-4.5 4.4s2 4.4 4.5 4.4 4.5-2 4.5-4.4-2-4.4-4.5-4.4z"></path></svg><svg width="128.6" height="116.3" viewBox="-50 -50 128.6 116.3" id="social-vk" y="817"><path fill="#FFF" d="M28.3 14.8c0-.1-.1-.1-.1-.2-.5-.9-1.4-2-2.8-3.3l-1.2-1.2c-.3-.4-.4-.8-.2-1.2.1-.3.6-1 1.3-1.9.4-.5.7-.9 1-1.3C28 3.4 28.8 2 28.5 1.3l-.1-.2c-.1-.1-.2-.2-.5-.2-.2-.1-.6-.1-.9 0h-5l-.2.2c-.1.1-.1.2-.1.3-.5 1.2-1 2.3-1.6 3.3-.4.6-.7 1.1-1 1.6-.3.4-.6.8-.8 1s-.4.4-.6.5c-.2.1-.3.2-.4.2-.1 0-.2 0-.3-.1-.1-.1-.2-.2-.3-.4-.1-.2-.1-.3-.2-.6 0-.2 0-.4-.1-.6V2c0-.3 0-.5-.1-.7 0-.2-.1-.3-.2-.5s-.2-.3-.3-.4-.3-.2-.5-.2c-.5-.1-1.2-.2-2-.2-1.8 0-3 .1-3.5.4.1.2 0 .3-.2.5s-.2.3-.1.4c.6.1 1 .3 1.3.6l.1.2c.1.1.1.4.2.7.1.3.1.7.1 1.1v1.9c0 .5-.1.9-.1 1.2s-.1.5-.2.7c-.1.2-.1.3-.2.3l-.1.1c-.1 0-.3.1-.4.1-.1 0-.3-.1-.5-.2-.2-.3-.4-.5-.6-.7-.2-.2-.5-.6-.7-1-.3-.5-.6-1-.9-1.6l-.2-.4c-.1-.3-.3-.7-.6-1.2s-.5-1-.7-1.5c-.1-.3-.2-.4-.3-.5h-.1S5.5 1 5.4 1C5.2.9 5.1.8 5 .8H.9C.5.8.3.9.1 1.1l-.1.1v.2c0 .1 0 .2.1.4.6 1.4 1.2 2.7 1.9 4s1.3 2.3 1.8 3.1c.5.8 1 1.5 1.6 2.2.5.7.9 1.2 1.1 1.4l.4.4.4.4c.2.2.6.5 1 .9.5.3 1 .7 1.5 1 .6.3 1.2.6 2 .8.7.2 1.5.3 2.2.2h1.7c.3 0 .6-.1.8-.3l.1-.1c0-.1.1-.2.1-.3 0-.1.1-.3.1-.4 0-.4 0-.8.1-1.1.1-.3.2-.6.3-.8.1-.2.2-.3.3-.4.1-.1.2-.2.3-.2 0 0 .1 0 .1-.1.2-.1.5 0 .8.2.3.2.6.5.9.9.3.3.6.7 1 1.1s.7.7 1 .9l.3.2c.2.1.5.2.8.3.3.1.6.1.8.1l3.8-.1c.4 0 .7-.1.9-.2.2-.1.3-.3.4-.4V15c-.2 0-.2-.2-.3-.2z"></path></svg><svg width="313.7" height="247.7" viewBox="-50 -50 313.7 247.7" id="success" y="934"><path fill="#F9572E" d="M75.9 147.7c-2.6 0-5.1-1-7.1-2.9L2.9 78.9C-1 75-1 68.6 2.9 64.7c3.9-3.9 10.2-3.9 14.1 0l58.9 58.9L196.6 2.9c3.9-3.9 10.2-3.9 14.1 0 3.9 3.9 3.9 10.2 0 14.1L83 144.8c-1.9 2-4.5 2.9-7.1 2.9z"></path></svg><svg width="124.5" height="124.4" viewBox="-50.3 -50.3 124.5 124.4" id="to-contacts" y="1182"><path fill="#F9572E" stroke="#F9572E" stroke-width=".5" stroke-miterlimit="10" d="M17.7 23.8c-.6 0-1.8-.1-3.3-.6-2.8-.9-5.7-2.7-8.4-5.4C1.8 13.6 0 10.3-.1 7c0-.4.3-.7.7-.7.4 0 .7.3.7.7 0 3 1.7 6 5.7 9.9 6 6 10.8 5.6 11.1 5.6l1.2-.3c.4-.2.9-.4 1.2-.7 0 0 .1 0 .1-.1l.8-.8c.4-.4.4-1.1 0-1.5L18 15.7c-.4-.4-1.1-.4-1.5 0l-1.7 1.7c-.2.2-.5.3-.8.1-.1-.1-.2-.1-.3-.2-1.1-.6-2.6-1.4-4.2-3.1C7.9 12.6 7 11.1 6.4 10v-.3c-.2-.1-.1-.4.1-.6l1.7-1.7c.4-.4.5-1.1 0-1.5L4.8 2.5c-.2-.2-.4-.3-.7-.3-.3 0-.6.1-.8.3l-.9 1c-.1.2-.3.4-.4.7-.2.3-.6.4-.9.2-.3-.1-.5-.5-.3-.9l.6-.9.9-1c.5-.5 1.1-.7 1.8-.8.7 0 1.3.2 1.7.7l3.4 3.4c.9.9.9 2.5 0 3.4L7.8 9.7c.6 1 1.4 2.4 2.8 3.8s2.8 2.2 3.8 2.8l1.3-1.3c1-1 2.5-1 3.4 0l3.4 3.4c.9.9.9 2.5 0 3.4l-1 .9c-.1.1-.1.1-.2.1-.4.3-.9.6-1.4.8-.5.2-1 .3-1.6.4-.2-.2-.3-.2-.6-.2zM24 12.3C24 5.5 18.4 0 11.7 0c-.4 0-.7.3-.7.7s.3.7.7.7c6.1 0 11.1 5 11.1 11.1 0 .4.3.7.7.7.1-.2.5-.5.5-.9zm-4.4-.4c0-4.2-3.4-7.6-7.6-7.6-.4 0-.7.3-.7.7s.4.7.7.7c3.4 0 6.2 2.8 6.2 6.2 0 .4.3.7.7.7s.7-.5.7-.7z"></path></svg><svg width="141.4" height="131.2" viewBox="-50 -50 141.4 131.2" id="to-down" y="1307"><path fill="#F9572E" d="M20.7 31.2c-1 0-1.9-.4-2.7-1.1l-18-18 1.4-1.4 18 18c.7.7 1.8.7 2.5 0l18-18 1.4 1.4-18 18c-.6.7-1.6 1.1-2.6 1.1z"></path><path fill="#F9572E" d="M20.7 11.1c-.6 0-1.2-.2-1.7-.7l-9-9L11.4 0l9 9c.2.2.4.2.6 0l9-9 1.4 1.4-9 9c-.5.5-1.1.7-1.7.7z"></path></svg><svg width="133.7" height="131.1" viewBox="-50 -50 133.7 131.1" id="to-down-hov" y="1439"><path fill="#F9572E" d="M16.8 31.1c-1 0-1.9-.4-2.7-1.1l-.1-.1-14-18 1.6-1.2 14 18c.7.6 1.8.6 2.5 0l14-18 1.6 1.2L19.6 30c-.9.7-1.8 1.1-2.8 1.1z"></path><path fill="#F9572E" d="M16.8 11c-.6 0-1.2-.2-1.7-.7l-.1-.2-6-9L10.7 0l5.9 8.9c.2.1.3.1.5 0L23 0l1.7 1.1-6.1 9.2c-.6.4-1.2.7-1.8.7z"></path></svg><svg width="354" height="354" viewBox="-52 -52 354 354" id="to-play" y="1571"><linearGradient id="a" gradientUnits="userSpaceOnUse" x1="-2" y1="-15717" x2="252" y2="-15717" gradientTransform="matrix(1 0 0 -1 0 -15592)"><stop offset="0" stop-color="#fa9685"></stop><stop offset="1" stop-color="#f9572e"></stop></linearGradient><circle fill="none" stroke="url(#a)" stroke-width="4" stroke-linecap="round" stroke-linejoin="round" stroke-miterlimit="10" cx="125" cy="125" r="125"></circle><linearGradient id="b" gradientUnits="userSpaceOnUse" x1="84.063" y1="-15719.81" x2="197.438" y2="-15719.81" gradientTransform="matrix(1 0 0 -1 0 -15592)"><stop offset="0" stop-color="#fa9685"></stop><stop offset="1" stop-color="#f9572e"></stop></linearGradient><path fill="none" stroke="url(#b)" stroke-width="4" stroke-linecap="round" stroke-linejoin="round" stroke-miterlimit="10" d="M86.1 64.7l109.3 63.1L86.1 191z"></path></svg><svg width="354" height="354" viewBox="-52 -52 354 354" id="to-play-hov" y="1925"><linearGradient id="a" gradientUnits="userSpaceOnUse" x1="-2" y1="-16477" x2="252" y2="-16477" gradientTransform="matrix(1 0 0 -1 0 -16352)"><stop offset="0" stop-color="#fa9685"></stop><stop offset="1" stop-color="#f9572e"></stop></linearGradient><circle fill="none" stroke="url(#a)" stroke-width="4" stroke-linecap="round" stroke-linejoin="round" stroke-miterlimit="10" cx="125" cy="125" r="125"></circle><linearGradient id="b" gradientUnits="userSpaceOnUse" x1="73.75" y1="-16479.81" x2="207.75" y2="-16479.81" gradientTransform="matrix(1 0 0 -1 0 -16352)"><stop offset="0" stop-color="#fa9685"></stop><stop offset="1" stop-color="#f9572e"></stop></linearGradient><path fill="none" stroke="url(#b)" stroke-width="4" stroke-linecap="round" stroke-linejoin="round" stroke-miterlimit="10" d="M75.8 52.8l130 75-130 75.1z"></path></svg></svg>